<?xml version="1.0" encoding="iso-8859-1"?>
<!-- Generator: Adobe Illustrator 23.0.4, SVG Export Plug-In . SVG Version: 6.00 Build 0)  -->
<svg version="1.1" id="Layer_1" xmlns="http://www.w3.org/2000/svg" xmlns:xlink="http://www.w3.org/1999/xlink" x="0px" y="0px"
	 viewBox="0 0 139.458 139.457" style="enable-background:new 0 0 139.458 139.457;" xml:space="preserve">
<g>
	<path style="fill:#DB0007;" d="M12.08,139.457c0,0-12.08,0-12.08-12.08V12.08C0,12.08,0,0,12.08,0h115.297c0,0,12.08,0,12.08,12.08
		v115.297c0,0,0,12.08-12.08,12.08H12.08z"/>
	<g>
		<path style="fill:#FFBC0D;" d="M89.989,28.659c-8.182,0-15.478,10.901-20.253,27.946C64.964,39.56,57.665,28.659,49.483,28.659
			c-14.379,0-26.041,36.27-26.041,81.008h11.575c0-41.543,6.478-75.221,14.466-75.221c7.99,0,14.467,31.089,14.467,69.436h11.572
			c0-38.347,6.477-69.436,14.466-69.436c7.989,0,14.468,33.678,14.468,75.221h11.57C116.027,64.929,104.369,28.659,89.989,28.659z"
			/>
	</g>
</g>
</svg>
